<svg width="455" height="336" viewBox="0 0 455 336" fill="none" xmlns="http://www.w3.org/2000/svg">
<g clip-path="url(#clip0)">
<path d="M452.9 116.8C447.7 106.8 432.1 112.7 432.1 112.7C430.6 104.2 426.9 107.1 426.9 107.1C432.9 83.6998 411.7 74.6998 411.7 74.6998C409.8 69.0998 401.3 69.0998 401.3 69.0998C397.6 66.8998 381.2 66.4998 381.2 66.4998L177.2 7.7998C172.4 1.7998 161.6 1.0998 161.6 1.0998C157.5 -1.5002 149.7 1.4998 149.7 1.4998C143.7 -0.4002 138.5 3.6998 138.5 3.6998C129.6 1.7998 126.2 10.7998 126.2 10.7998L40.6 43.0998C-3.8147e-06 43.8998 2.3 81.7998 2.3 81.7998C-4 80.2998 4.9 111.6 4.9 111.6L10.1 115.3L27.8 192.3C28.9 197 29.9 203.3 32.5 207.6C33.2 208.7 33.9 209.8 34.5 210.9C38.9 219.1 46.2 223.9 55.2 223.2C55.2 223.2 61.3 225 61.3 225.1C61.2 225.1 61.9 227.5 62 227.7C62.8 229.4 64.2 230.1 65.8 231C68.5 232.5 71.5 233.8 74.4 234.8C76.6 235.6 80 235.5 82 236.5L102.8 246.7C105.1 247.8 106.5 251.9 108.8 253.5C111.7 255.5 115.1 256.8 118.5 257.7C121.4 258.5 124.7 258.3 127.5 259.7C127.5 259.7 134.2 262.9 141.6 266.5L162.2 277.5C162.4 277.9 162.5 278.3 162.6 278.5C163.8 280.5 165.3 282.4 167.2 283.7C170.3 285.9 173.7 287.4 177.2 288.8C179 289.5 180.9 290.3 182.8 290.7C183.8 290.9 186 290.5 186.9 290.8H187C187 290.8 213.5 304 213.6 304C214.3 304.3 215 305.2 215.7 306.2C216.7 307.5 217.7 309 218.6 309.7C221.7 312.1 225.3 313.9 229 315.2C230.4 315.7 232.3 315.9 234.2 316.1L243.7 321.2C247.4 323.7 250.9 325.8 254.1 327.5C266.4 334.1 275 335.6 279.8 335.9C280.1 335.9 280.4 335.8 280.8 335.8L286.7 335.5L293.6 335.2C293.6 335.2 311.7 329.3 316.6 319.5C318.3 317.9 319.2 316.8 319.2 316.8C319.2 316.8 331.3 306.7 346.3 294.8L393.8 260.1C393.8 260.1 410.2 255.1 413.3 246.7L413.6 242.7C414.6 240 414.8 237.2 416.2 233.5C419.9 223.8 425.5 142.3 425.5 142.3C425.5 142.3 425.5 136.3 438.5 136C451.8 135.4 458.1 126.8 452.9 116.8ZM441.7 128.9C436.5 128.5 435.6 128.5 435.2 125.4C434.8 122.4 435.2 121.5 438.2 119.7C441.2 117.9 444.7 118.8 444.7 118.8C444.7 118.8 445.6 115.8 446.4 121C447.4 126.3 446.9 129.3 441.7 128.9Z" fill="#818282"/>
<path d="M215.8 306.1L186.9 290.7H187C187 290.7 213.5 303.9 213.6 303.9C214.3 304.3 215 305.1 215.8 306.1Z" fill="#818282"/>
<path d="M28.5 123.1C30.1 131.8 31.5 140.6 33 149.3C33.8 153.7 34.5 158 35.3 162.4C36.1 166.8 36.8 171.1 37.7 175.4C38.5 179.7 39.4 184.1 40.3 188.4C41.2 192.7 42.3 197 43.4 201.3C44.6 205.5 45.8 209.8 47.5 213.8C48.3 215.8 49.3 217.8 50.5 219.6C51.1 220.5 51.8 221.3 52.6 222C53.4 222.7 54.4 223.2 55.6 223.2C54.5 223.3 53.3 223 52.4 222.4C51.4 221.8 50.6 221 49.9 220.1C48.4 218.4 47.3 216.4 46.2 214.4C44.2 210.4 42.6 206.2 41.2 201.9C38.4 193.4 36.5 184.7 34.8 176C33.2 167.3 31.8 158.5 30.7 149.6C29.7 140.8 28.8 132 28.5 123.1Z" fill="#3A3A3A"/>
<path d="M12.5 124.6L17.7 148.3C19.5 156.2 21.2 164.1 23.1 171.9C24.9 179.8 26.8 187.6 28.9 195.4C30 199.3 31.1 203.2 32.6 206.9C33.3 208.8 34.1 210.7 35 212.4C35.5 213.3 36 214.1 36.6 214.9C37.2 215.7 38 216.4 38.9 216.8C37.9 216.5 37.1 215.8 36.5 215C35.8 214.2 35.3 213.4 34.8 212.5C33.8 210.8 32.9 208.9 32.1 207C30.6 203.2 29.3 199.4 28.1 195.5C25.8 187.7 23.9 179.9 22 172C20.2 164.1 18.5 156.2 16.9 148.3C15.4 140.5 13.9 132.6 12.5 124.6Z" fill="#999999"/>
<path d="M54.0001 127.1C53.7001 135.9 53.5001 144.7 53.5001 153.6C53.5001 162.4 53.5001 171.2 54.0001 180C54.3001 184.4 54.6001 188.8 55.3001 193.1L57.3001 206.2C58.0001 210.6 58.6001 214.9 59.6001 219.2C60.1001 221.3 60.6001 223.5 61.4001 225.5C61.8001 226.5 62.3001 227.5 62.9001 228.4C63.5001 229.3 64.4001 230 65.4001 230.4C64.3001 230.1 63.4001 229.4 62.7001 228.5C62.0001 227.6 61.5001 226.6 61.0001 225.6C60.1001 223.6 59.5001 221.4 58.9001 219.3C57.8001 215 57.0001 210.6 56.3001 206.3L54.2001 193.2C53.6001 188.8 53.3001 184.4 53.0001 180C52.6001 171.2 52.6001 162.3 52.7001 153.5C53.0001 144.7 53.4001 135.9 54.0001 127.1Z" fill="#999999"/>
<path d="M66.8 141.1C67.1 149.4 67.2999 157.6 67.5999 165.9C67.7999 170 67.7999 174.1 67.9999 178.3C68.1999 182.4 68.2999 186.5 68.5999 190.6C68.7999 194.7 69.1 198.8 69.4 202.9C69.7 207 70.0999 211.1 70.6999 215.1C71.2999 219.1 71.8999 223.2 72.9999 227.1C73.4999 229.1 74.1999 231 75.1999 232.7C75.6999 233.6 76.2999 234.4 76.9999 235.1C77.6999 235.8 78.6999 236.3 79.6999 236.4C78.6999 236.5 77.5999 236.1 76.6999 235.5C75.7999 234.9 75.0999 234.1 74.4999 233.2C73.2999 231.5 72.3999 229.5 71.5999 227.6C70.0999 223.7 69.1 219.6 68.4 215.5C66.8 207.3 66.0999 199 65.5999 190.7C65.1999 182.4 65.1 174.1 65.3 165.9C65.5 157.6 65.9 149.3 66.8 141.1Z" fill="#3A3A3A"/>
<path d="M114.8 155C115.1 164 115.2 172.9 115.4 181.8L115.7 195.2C115.8 199.7 115.9 204.1 116.1 208.6C116.2 213.1 116.4 217.5 116.6 222C116.8 226.5 117.1 230.9 117.5 235.3C117.9 239.7 118.4 244.1 119.3 248.5C119.7 250.7 120.3 252.8 121.1 254.8C121.5 255.8 122 256.8 122.8 257.6C123.5 258.4 124.5 259 125.7 258.9C124.6 259.2 123.4 258.7 122.5 257.9C121.6 257.1 121 256.2 120.4 255.2C119.3 253.2 118.5 251 117.9 248.9C116.6 244.5 115.8 240.1 115.2 235.6C113.9 226.7 113.4 217.7 113.1 208.7C112.8 199.7 112.8 190.8 113.1 181.8C113.4 172.9 113.9 163.9 114.8 155Z" fill="#3A3A3A"/>
<path d="M101.4 148C101.2 148.5 101.2 149.1 101.2 149.6L101.1 151.3L100.9 154.6C100.8 156.8 100.7 159 100.6 161.3C100.4 165.7 100.2 170.2 100.1 174.6C99.8999 183.5 99.6999 192.4 99.7999 201.3C99.8999 210.2 100.2 219.1 101 227.9C101.4 232.3 102 236.7 102.9 241.1C103.4 243.3 103.9 245.4 104.7 247.5C105.1 248.5 105.6 249.5 106.1 250.5C106.7 251.4 107.3 252.3 108.2 253C106.3 251.7 105.3 249.6 104.4 247.6C103.5 245.5 102.9 243.4 102.4 241.2C101.4 236.9 100.7 232.4 100.2 228C99.1999 219.1 98.8999 210.2 98.7999 201.3C98.6999 192.4 98.8999 183.5 99.2999 174.6C99.4999 170.2 99.7999 165.7 100.1 161.3C100.3 159.1 100.4 156.9 100.6 154.6L100.9 151.3L101.1 149.6C101.2 149.1 101.2 148.5 101.4 148Z" fill="#999999"/>
<path d="M170.1 205.3C171.2 213 171.7 220.7 172.2 228.4C172.7 236.1 173 243.8 173.4 251.5L173.7 257.3C173.8 259.2 173.8 261.2 173.9 263.1C174 266.9 174.2 270.7 174.7 274.4C175 276.2 175.3 278.1 175.8 279.8C176.3 281.6 176.9 283.3 177.8 284.8C178.7 286.3 179.9 287.8 181.4 288.8C182.9 289.9 184.7 290.4 186.7 290.6C184.8 290.9 182.7 290.8 180.8 289.9C179.9 289.5 179 288.9 178.2 288.3C177.4 287.7 176.7 286.9 176 286.1C174.7 284.5 173.7 282.6 173 280.7C172.3 278.8 171.7 276.9 171.3 274.9C170.5 271 170.1 267 169.9 263.1C169.8 261.2 169.7 259.2 169.7 257.3C169.7 255.4 169.6 253.5 169.5 251.5C169.3 243.8 169.3 236 169.4 228.3C169.5 220.7 169.7 213 170.1 205.3Z" fill="#3A3A3A"/>
<path d="M158.1 171.5C158.3 176.4 158.2 181.3 158.1 186.2C158 191.1 157.9 196 157.7 200.9L156.7 230.3C156.6 235.2 156.4 240.1 156.4 245C156.4 247.5 156.4 249.9 156.6 252.3C156.7 254.7 156.9 257.2 157.1 259.6C157.5 264.5 158.3 269.3 160 273.8C160.9 276.1 162.1 278.2 163.6 280.1C165.1 282 167 283.6 169.2 284.7C166.9 283.8 164.9 282.3 163.2 280.4C161.5 278.6 160.3 276.4 159.3 274.1C157.3 269.5 156.5 264.6 156.1 259.7C155.7 254.8 155.3 249.9 155.4 245C155.4 240.1 155.6 235.2 155.8 230.3C156.1 220.5 156.6 210.7 157.1 200.9C157.5 191.1 158.1 181.3 158.1 171.5Z" fill="#999999"/>
<path d="M212.3 198.4C212.5 203.3 212.4 208.2 212.3 213.1C212.2 218 212.1 222.9 211.9 227.8L210.9 257.2C210.8 262.1 210.6 267 210.6 271.9C210.6 274.4 210.6 276.8 210.8 279.2C210.9 281.6 211.1 284.1 211.3 286.5C211.7 291.4 212.5 296.2 214.2 300.7C215.1 303 216.3 305.1 217.8 307C219.3 308.9 221.2 310.5 223.4 311.6C221.1 310.7 219.1 309.2 217.4 307.3C215.7 305.5 214.5 303.3 213.5 301C211.5 296.4 210.7 291.5 210.3 286.6C209.9 281.7 209.5 276.8 209.6 271.9C209.6 267 209.8 262.1 210 257.2C210.3 247.4 210.8 237.6 211.3 227.8C211.7 218 212.4 208.2 212.3 198.4Z" fill="#999999"/>
<path d="M246.9 215.7C247.2 220.6 247.2 225.4 247.2 230.3C247.3 235.2 247.3 240 247.3 244.9V274.1C247.3 279 247.3 283.8 247.4 288.7C247.4 291.1 247.5 293.5 247.6 296C247.8 298.4 247.8 300.9 247.9 303.3C248.1 308.1 248.6 313 250.2 317.5C251.1 319.7 251.9 322 253 324.2C254.1 326.3 255.8 328.1 258 329.2C255.7 328.3 253.8 326.5 252.6 324.4C252 323.4 251.4 322.2 250.9 321.1C250.4 320 249.9 318.9 249.5 317.7C247.7 313.1 247.2 308.1 246.9 303.3L246.5 296C246.4 293.6 246.3 291.1 246.3 288.7C246.2 283.8 246.3 279 246.3 274.1C246.3 264.4 246.5 254.7 246.6 244.9C246.8 235.1 247.1 225.4 246.9 215.7Z" fill="#999999"/>
<path d="M227.4 205C228.5 214.7 229.2 224.5 229.8 234.3C230.1 239.2 230.3 244.1 230.6 248.9L231.1 263.6L231.5 278.3C231.6 283.2 231.7 288.1 231.7 293C231.7 295.5 231.7 297.9 231.7 300.4C231.6 302.9 231.4 305.3 231.4 307.7C231.4 310.1 231.6 312.5 232.8 314.4C233.9 316.4 236.5 317.2 238.9 317.2C237.7 317.4 236.4 317.5 235.2 317.2C233.9 316.9 232.8 316.2 231.9 315.1C231 314.1 230.5 312.8 230.2 311.6C229.8 310.4 229.6 309.1 229.5 307.9C229.2 305.4 229.2 302.9 229.1 300.5L228.6 293.2C228.2 288.3 228 283.4 227.8 278.6C227.6 273.7 227.4 268.8 227.2 263.9L226.9 249.2C226.9 244.3 226.8 239.4 226.8 234.5C226.7 224.6 226.8 214.8 227.4 205Z" fill="#3A3A3A"/>
<path d="M259.4 222.5C260.5 232.6 261.3 242.7 261.9 252.9C262.2 258 262.4 263 262.7 268.1C262.8 270.6 262.9 273.2 263 275.7L263.5 283.3L264.2 298.5C264.5 303.6 264.4 308.7 264.6 313.7C264.7 316.2 264.9 318.7 265.3 321.1C265.5 322.3 265.7 323.5 266.1 324.7C266.4 325.9 266.9 327 267.4 328.1C267.9 329.2 268.6 330.2 269.3 331.2C270.1 332.1 271 332.9 271.9 333.6C273.9 335 276.4 335.5 279 335.4C277.8 335.6 276.5 335.8 275.2 335.6C273.9 335.4 272.6 335.1 271.4 334.5C270.2 333.9 269.1 333.1 268.2 332.2C267.3 331.2 266.4 330.2 265.7 329.1C264.3 326.8 263.4 324.2 262.8 321.7C262.2 319.2 261.8 316.6 261.5 314C261.2 311.4 261.1 308.9 260.9 306.4C260.8 303.9 260.6 301.4 260.4 298.9L259.4 283.7C258.8 273.6 258.7 263.4 258.6 253.2C258.8 242.8 258.9 232.6 259.4 222.5Z" fill="#3A3A3A"/>
<path d="M306.3 220.9C307.4 231 308.1 241.2 308.5 251.4C308.8 256.5 308.9 261.6 309 266.7C309.1 271.8 309.1 276.9 309.2 282C309.2 287.1 309.1 292.2 309 297.3V301C309 302.2 308.9 303.5 308.9 304.8C308.9 307.3 308.9 309.9 308.7 312.5C308.4 317.6 307.9 323 305.5 327.8C304.9 329 304.1 330.1 303.2 331.2C302.3 332.2 301.2 333.1 300 333.7C297.6 334.9 294.8 335 292.3 334.6C293.6 334.5 294.8 334.5 296.1 334.2C297.3 333.9 298.5 333.5 299.5 332.8C300.5 332.1 301.4 331.3 302.1 330.3C302.8 329.3 303.3 328.3 303.8 327.1C304.7 324.8 305.1 322.4 305.3 320C305.5 317.5 305.6 315.1 305.6 312.5C305.6 310 305.5 307.5 305.4 304.9C305.4 303.6 305.3 302.3 305.3 301V297.2V282V266.8C305.4 261.7 305.3 256.6 305.4 251.6C305.6 241.3 305.8 231.1 306.3 220.9Z" fill="#3A3A3A"/>
<path d="M412.1 153.8C412.6 163.1 412.7 172.4 412.7 181.7C412.7 186.4 412.6 191 412.6 195.6V209.5C412.5 214.2 412.4 218.8 412.1 223.5C411.7 228.2 411.2 232.9 410.2 237.5C410 238.7 409.7 239.8 409.4 241C409.1 242.1 408.8 243.3 408.4 244.4C408 245.5 407.7 246.7 407.2 247.8C406.7 248.9 406.1 250 405.4 251C404.7 252 403.8 252.9 402.9 253.7C402 254.5 400.9 255.2 399.8 255.7C398.7 256.2 397.5 256.5 396.3 256.7C395.1 256.8 393.9 256.7 392.8 256.5C395.1 256.5 397.4 255.9 399.3 254.7C400.2 254.1 401.1 253.4 401.8 252.6C402.5 251.8 403.2 250.9 403.7 249.9C404.2 248.9 404.7 247.9 405 246.9C405.3 245.9 405.6 244.8 405.8 243.6C406.1 242.5 406.3 241.4 406.5 240.2C406.7 239.1 406.9 238 407.1 236.8C407.7 232.3 408.2 227.7 408.3 223.1C408.5 218.5 408.6 213.9 408.6 209.3C408.7 204.7 408.7 200 408.8 195.3C408.9 193 409 190.6 409.1 188.3C409.2 186 409.4 183.7 409.5 181.3C410.2 172.3 410.9 163 412.1 153.8Z" fill="#3A3A3A"/>
<path d="M52.8 46.9997C56.7 45.2997 60.7 43.5997 64.6 41.8997L76.5 36.8997C84.4 33.5997 92.3001 30.2997 100.3 27.0997L112.2 22.2997L124.2 17.4997C132.2 14.2997 140.1 11.1997 148.1 8.09971L149 7.69971L150 7.99971C159.2 10.4997 168.3 12.8997 177.5 15.4997L204.9 23.1997C214 25.7997 223.1 28.3997 232.3 30.9997L246 34.8997L259.7 38.8997C277.9 44.2997 296.1 49.7997 314.2 55.3997L327.8 59.5997L341.4 63.9997C350.4 66.8997 359.5 69.7997 368.5 72.8997L368.4 73.2997L258.7 42.4997L203.9 26.9997L149.1 11.3997H149.3L52.9001 47.3997L52.8 46.9997Z" fill="#3A3A3A"/>
<path d="M321 177.6C328.3 172.2 335.7 167.1 343.1 161.9L348.7 158L354.3 154.2L365.5 146.6C373 141.6 380.5 136.5 388.1 131.6L399.4 124.2C403.2 121.7 407 119.3 410.8 116.8L409.2 119.2C409.7 115.5 409.7 111.7 409.1 108.1C408.7 106.3 408.3 104.5 407.6 102.8C406.9 101.1 406.1 99.4999 405.2 97.8999C403.3 94.7999 400.8 91.9999 397.9 89.5999C396.4 88.3999 394.9 87.2999 393.3 86.2999C392.5 85.7999 391.7 85.2999 390.8 84.8999C390.4 84.6999 390 84.4999 389.5 84.2999C389.1 84.0999 388.6 83.8999 388.3 83.7999L391.2 83.5999C383.3 87.8999 375.3 91.9999 367.4 96.0999C359.5 100.3 351.5 104.3 343.5 108.4L331.5 114.4L325.5 117.4L319.4 120.3C311.3 124.2 303.3 128.2 295.1 131.9L294.9 131.5L389.3 79.9999L389.4 79.8999L389.5 79.9999C393.4 81.5999 396.9 83.6999 400.1 86.2999C403.3 88.8999 406.2 91.9999 408.4 95.4999C409.5 97.2999 410.4 99.0999 411.2 101.1C411.9 103 412.5 105.1 412.8 107.1C413.5 111.2 413.4 115.4 412.8 119.5V119.7L412.7 119.8L321.3 178L321 177.6Z" fill="#3A3A3A"/>
<path d="M277.8 145.3C274.4 147.8 271.5 150.9 269.1 154.3C266.7 157.7 264.8 161.4 263.2 165.2C262.5 167.2 261.8 169.1 261.3 171.1L260.9 172.6C260.8 173.1 260.6 173.6 260.5 174.1L259.9 177.1C259.7 178.1 259.6 179.1 259.4 180.2L259 183.3C258.9 185.4 258.8 187.4 258.7 189.5L257.4 187.6C261 188.9 264.9 190 268.8 190.8C272.7 191.6 276.6 192.1 280.6 192.3C284.6 192.5 288.5 192.3 292.5 191.6C294.5 191.3 296.4 190.7 298.3 190.1C300.2 189.5 302.1 188.6 303.9 187.7C302.3 189 300.6 190.1 298.7 191.1C296.9 192 294.9 192.8 292.9 193.4C290.9 194 288.9 194.4 286.8 194.8C284.7 195.1 282.6 195.3 280.6 195.3C276.4 195.4 272.3 195 268.2 194.4C266.1 194.1 264.1 193.6 262.1 193.1C260.1 192.6 258.1 192 256.1 191.3L254.8 190.8L254.9 189.4C255 187.2 255.1 185 255.3 182.9L255.7 179.7C255.8 178.6 256 177.5 256.2 176.5L256.9 173.3C257 172.8 257.2 172.2 257.3 171.7L257.8 170.1C258.2 169.1 258.4 168 258.9 167L260.2 164C261.2 162.1 262.2 160.1 263.4 158.3L264.3 156.9L265.3 155.6L266.3 154.3C266.6 153.9 267 153.5 267.4 153.1C270.5 149.9 273.9 147 277.8 145.3Z" fill="#3A3A3A"/>
<path d="M280.8 144.7C285.1 145.4 288.9 147.8 292.2 150.7C295.5 153.6 298.1 157.3 300 161.2L301.3 164.2C301.7 165.2 302 166.3 302.3 167.3L302.8 168.9C303 169.4 303 170 303.1 170.5C303.3 171.6 303.5 172.6 303.7 173.7C304 175.8 304.1 178 304.2 180.1C304.1 182.2 304 184.4 303.7 186.5C303.1 184.4 302.7 182.4 302.2 180.3L301.4 177.3C301.1 176.3 300.9 175.3 300.6 174.3C299.9 172.4 299.5 170.4 298.6 168.5C298.2 167.6 297.9 166.6 297.5 165.7L296.2 163C294.4 159.4 292.3 156 289.7 152.9C287.4 149.8 284.4 147 280.8 144.7Z" fill="#3A3A3A"/>
<path d="M281.4 144.7C285.5 145.8 289.3 148 292.6 150.8C295.9 153.6 298.5 157.1 300.5 160.9C301.4 162.8 302.2 164.9 302.8 166.9C303.1 167.9 303.4 169 303.6 170L303.9 171.6L304.1 173.2C304.4 175.3 304.5 177.5 304.5 179.6L304.4 182.8C304.3 183.9 304.2 184.9 304.1 186V182.8L304 179.6C303.9 177.5 303.7 175.4 303.3 173.3C303 171.2 302.5 169.2 301.9 167.2C301.2 165.2 300.5 163.2 299.5 161.4C297.6 157.6 295.1 154.2 292 151.4C290.5 150 288.8 148.7 287 147.6C285.3 146.4 283.4 145.4 281.4 144.7Z" fill="#999999"/>
<path d="M256.1 133.9C252.9 132.9 249.8 131.8 246.7 130.7C243.6 129.6 240.4 128.5 237.3 127.4L237.9 127.3C234.2 129.8 230.9 133.1 228.1 136.6C225.3 140.1 222.8 144 221 148.1C219.2 152.2 217.7 156.5 217.1 161C216.6 163.2 216.5 165.5 216.3 167.7L216.2 168.5V169.4V171.1V174.5L215.7 173.8C219.4 175.4 223.1 177.1 226.8 178.8C230.5 180.5 234.2 182.2 237.9 184C234.1 182.6 230.3 181.1 226.5 179.7C222.7 178.2 218.9 176.8 215.1 175.2L214.6 175V174.5L214.5 171L214.4 169.2V168.3L214.5 167.4C214.7 165.1 214.7 162.7 215.2 160.4C215.4 159.2 215.6 158.1 215.8 156.9L216.7 153.5C217 152.4 217.4 151.3 217.8 150.2C218.2 149.1 218.6 148 219.1 146.9C221 142.6 223.6 138.6 226.6 135.1C229.6 131.5 233.1 128.4 237.1 125.8L237.4 125.6L237.7 125.7C240.8 127 243.8 128.2 246.9 129.6C250 131.2 253.1 132.5 256.1 133.9Z" fill="#3A3A3A"/>
<path d="M235.3 127C231.5 129.4 228.2 132.4 225.4 135.7C222.6 139.1 220.1 142.7 218.3 146.8L217.9 147.5L217.6 148.3L217 149.8L216.4 151.3C216.2 151.8 216.1 152.4 215.9 152.9L215 156.1C214.8 157.2 214.6 158.3 214.4 159.3L214.1 160.9C214 161.4 214 162 213.9 162.5L213.6 165.8C213.4 168 213.5 170.2 213.4 172.4C213.3 171.3 213.3 170.2 213.2 169.1L213.1 167.4C213.1 166.8 213 166.3 213.1 165.7L213.3 162.4C213.3 161.8 213.3 161.3 213.4 160.7L213.7 159C213.9 157.9 214 156.8 214.2 155.7L215.1 152.5C215.3 152 215.4 151.4 215.6 150.9L216.2 149.3L216.8 147.7C217 147.2 217.2 146.7 217.5 146.2L219 143.2L220.8 140.3C222.1 138.4 223.4 136.6 224.9 135C226.4 133.3 228.1 131.8 229.8 130.4C231.5 129.3 233.3 128 235.3 127Z" fill="#999999"/>
<path d="M259.1 137.8C257.5 138.9 255.9 140 254.4 141.3C253.7 141.9 253 142.6 252.2 143.2C251.5 143.9 250.8 144.6 250.2 145.3C247.6 148.1 245.3 151.3 243.6 154.8L242.9 156.1L242.3 157.4C241.9 158.3 241.5 159.2 241.2 160.1L240.3 162.9C240.1 163.4 240 163.8 239.9 164.3L239.6 165.7C239.1 167.6 239 169.5 238.7 171.4C238.5 172.4 238.6 173.3 238.6 174.3C238.6 175.3 238.6 176.2 238.5 177.2C238.4 176.2 238.4 175.3 238.3 174.3C238.3 173.3 238.1 172.3 238.2 171.4C238.3 169.4 238.4 167.5 238.8 165.5C239.4 161.6 240.8 157.8 242.6 154.3C244.5 150.8 246.8 147.6 249.6 144.8C252.4 142 255.6 139.5 259.1 137.8Z" fill="#999999"/>
<path d="M55.4 58.8996C52.2 57.8996 49.1 56.7996 46 55.6996C42.9 54.5996 39.7 53.4996 36.6 52.3996H37.1C35.4 53.2996 33.8 54.5996 32.3 55.9996C30.8 57.3996 29.4 58.8996 28.2 60.4996C25.7 63.6996 23.8 67.2996 22.3 71.0996C21.6 72.9996 21 74.8996 20.5 76.8996C20.1 78.8996 19.6 80.8996 19.4 82.8996C18.9 86.8996 18.8 90.9996 19 95.0996L18.5 94.3996C20.2 95.0996 21.9 95.7996 23.6 96.4996C25.3 97.2996 27 97.8996 28.7 98.6996C26.9 98.2996 25.1 97.7996 23.3 97.3996C21.5 96.8996 19.8 96.3996 18 95.8996L17.5 95.7996V95.2996C17.1 91.0996 17.1 86.8996 17.6 82.6996C18.1 78.4996 19 74.3996 20.5 70.3996C22 66.4996 24.1 62.6996 26.8 59.3996C29.5 56.0996 32.7 53.2996 36.5 51.1996L36.8 51.0996L37.1 51.1996C40.2 52.4996 43.2 53.6996 46.3 55.0996C49.3 56.2996 52.4 57.5996 55.4 58.8996Z" fill="#3A3A3A"/>
<path d="M34.6001 52.0996C32.7001 52.9996 31.0001 54.1996 29.4001 55.4996L28.2001 56.4996C27.8001 56.7996 27.5001 57.1996 27.1001 57.5996C26.7001 57.9996 26.3001 58.2996 26.0001 58.6996L25.0001 59.8996C22.4001 63.0996 20.4001 66.7996 19.0001 70.6996L18.0001 73.6996C17.8001 74.6996 17.5001 75.6996 17.3001 76.6996L17.0001 78.1996L16.8001 79.6996C16.7001 80.6996 16.5001 81.7996 16.4001 82.7996C16.2001 84.8996 16.2001 86.9996 16.1001 89.0996C16.2001 91.1996 16.3001 93.2996 16.3001 95.3996C16.0001 93.2996 15.8001 91.1996 15.6001 89.0996C15.6001 86.9996 15.5001 84.8996 15.6001 82.7996C15.7001 81.6996 15.8001 80.6996 15.9001 79.5996L16.1001 77.9996L16.4001 76.3996C16.6001 75.3996 16.8001 74.2996 17.1001 73.2996L18.1001 70.2996C19.6001 66.2996 21.6001 62.4996 24.4001 59.2996L25.5001 58.0996C25.9001 57.6996 26.3001 57.3996 26.7001 56.9996C27.1001 56.5996 27.5001 56.2996 27.9001 55.8996L29.2001 54.8996C30.8001 53.8996 32.6001 52.7996 34.6001 52.0996Z" fill="#999999"/>
<path d="M53.5001 59.5996C49.8001 60.9996 46.5001 63.3996 43.7001 66.0996C40.9001 68.8996 38.7001 72.1996 37.0001 75.7996L35.9001 78.4996C35.5001 79.3996 35.3001 80.3996 35.0001 81.2996C34.3001 83.1996 34.2001 85.1996 33.7001 87.0996L33.6001 87.7996L33.5001 88.4996L33.4001 89.9996L33.1001 92.9996C33.1001 94.9996 33.1001 96.9996 33.0001 98.9996C32.8001 96.9996 32.7001 94.9996 32.6001 92.9996L32.7001 89.9996L32.8001 88.4996V87.6996L32.9001 86.9996C33.2001 84.9996 33.4001 82.9996 34.1001 81.0996C34.4001 80.0996 34.6001 79.0996 35.0001 78.1996L36.1001 75.3996C37.9001 71.7996 40.2001 68.3996 43.2001 65.5996C43.6001 65.2996 43.9001 64.8996 44.3001 64.5996L45.5001 63.6996C46.3001 63.0996 47.2001 62.5996 48.0001 61.9996C49.7001 60.9996 51.5001 60.0996 53.5001 59.5996Z" fill="#999999"/>
<path d="M214.8 119.5C208.8 117.5 202.8 115.4 196.7 113.4C190.7 111.4 184.7 109.2 178.7 107.2H179.3C177.6 108.3 175.9 109.7 174.3 111.1C172.8 112.6 171.3 114.1 170 115.8C167.4 119.2 165.2 122.9 163.6 126.8C162 130.7 160.9 134.9 160.3 139.1C159.7 143.3 159.5 147.6 159.7 151.9L159.2 151.2C162.9 152.8 166.6 154.5 170.3 156.2C174 157.9 177.7 159.6 181.4 161.4C177.6 160 173.8 158.5 170 157.1C166.2 155.6 162.4 154.2 158.6 152.6L158.2 152.4V151.9C157.8 147.5 157.9 143.1 158.4 138.7C159 134.3 160.1 130 161.8 125.9C163.5 121.8 165.8 117.9 168.6 114.5C171.4 111.1 174.7 108 178.6 105.7L178.9 105.5L179.2 105.6C185.1 107.9 191.1 110.1 197 112.4C202.9 114.9 208.8 117.2 214.8 119.5Z" fill="#3A3A3A"/>
<path d="M178.8 104.4C175 106.8 171.7 109.8 168.9 113.1C166.1 116.5 163.6 120.1 161.8 124.2L161.4 124.9L161.1 125.7L160.5 127.2L159.9 128.7C159.7 129.2 159.6 129.8 159.4 130.3L158.5 133.5C158.3 134.6 158.1 135.7 157.9 136.7L157.6 138.3C157.5 138.8 157.5 139.4 157.4 139.9L157.1 143.2C156.9 145.4 157 147.6 156.9 149.8C156.8 148.7 156.8 147.6 156.7 146.5L156.6 144.8C156.6 144.2 156.5 143.7 156.6 143.1L156.8 139.8C156.8 139.2 156.8 138.7 156.9 138.1L157.2 136.4C157.4 135.3 157.5 134.2 157.7 133.1L158.6 129.9C158.8 129.4 158.9 128.8 159.1 128.3L159.7 126.7L160.3 125.1C160.5 124.6 160.7 124.1 161 123.6L162.5 120.6L164.3 117.7C165.6 115.8 166.9 114 168.4 112.4C169.9 110.7 171.6 109.2 173.3 107.8C175 106.7 176.8 105.4 178.8 104.4Z" fill="#999999"/>
<path d="M215.1 124.1C212.1 126.5 209.6 129.3 207.4 132.4C205.3 135.5 203.4 138.8 202.1 142.3C201.7 143.2 201.5 144.1 201.1 144.9L200.6 146.2C200.5 146.7 200.4 147.1 200.2 147.6L199.5 150.3C199.4 151.2 199.2 152.2 199 153.1L198.8 154.5C198.7 155 198.7 155.4 198.7 155.9L198.4 158.7C198.3 160.6 198.3 162.5 198.2 164.4C198.1 163.5 198.1 162.5 198 161.6C198 160.7 197.8 159.7 197.9 158.7L198 155.8C198 155.3 198 154.8 198.1 154.4L198.3 153C198.4 152.1 198.5 151.1 198.7 150.2L199.4 147.4C199.5 146.9 199.6 146.5 199.7 146L200.1 144.6C200.4 143.7 200.7 142.8 201 141.9L202.2 139.3C202.6 138.4 203.1 137.6 203.5 136.8C203.9 135.9 204.5 135.2 205 134.3C205.5 133.5 206.1 132.7 206.7 132C207.9 130.5 209.2 129.1 210.5 127.7C212 126.3 213.5 125.1 215.1 124.1Z" fill="#999999"/>
<path d="M101.7 77.5C95.7001 75.5 89.7001 73.4 83.6001 71.4C77.6001 69.4 71.6001 67.2 65.6001 65.2H66.2001C64.5001 66.3 62.8001 67.7 61.2001 69.1C59.7001 70.6 58.2001 72.1 56.9001 73.8C54.3001 77.2 52.1001 80.9 50.5001 84.8C48.9001 88.7 47.8001 92.9 47.2001 97.1C46.6001 101.3 46.4001 105.6 46.6001 109.9L46.1001 109.2C49.8001 110.8 53.5001 112.5 57.2001 114.2C60.9001 115.9 64.6001 117.6 68.3001 119.4C64.5001 118 60.7001 116.5 56.9001 115.1C53.1001 113.6 49.3001 112.2 45.5001 110.6L45.1001 110.4V109.9C44.7001 105.5 44.8001 101.1 45.3001 96.7C45.9001 92.3 47.0001 88 48.7001 83.9C50.4001 79.8 52.7001 75.9 55.5001 72.5C58.3001 69.1 61.6001 66 65.5001 63.7L65.8001 63.5L66.1001 63.6C72.0001 65.9 78.0001 68.1 83.9001 70.4C89.9001 72.9 95.8001 75.2 101.7 77.5Z" fill="#3A3A3A"/>
<path d="M65.8001 62.3999C62.0001 64.7999 58.7001 67.7999 55.9001 71.0999C53.1001 74.4999 50.6001 78.0999 48.8001 82.1999L48.4001 82.9999L48.1001 83.7999L47.5001 85.2999L46.9001 86.7999C46.7001 87.2999 46.6001 87.8999 46.4001 88.3999L45.5001 91.5999C45.3001 92.6999 45.1001 93.7999 44.9001 94.7999L44.6001 96.3999C44.5001 96.8999 44.5001 97.4999 44.4001 97.9999L44.1001 101.3C43.9001 103.5 44.0001 105.7 43.9001 107.9C43.8001 106.8 43.8001 105.7 43.7001 104.6L43.6001 102.9C43.6001 102.3 43.5001 101.8 43.6001 101.2L43.8001 97.8999C43.8001 97.2999 43.8001 96.7999 43.9001 96.1999L44.2001 94.4999C44.4001 93.3999 44.5001 92.2999 44.7001 91.1999L45.6001 87.9999C45.8001 87.4999 45.9001 86.8999 46.1001 86.3999L46.7001 84.7999L47.3001 83.1999C47.5001 82.6999 47.7001 82.1999 48.0001 81.6999L49.5001 78.6999L51.3001 75.7999C52.6001 73.8999 53.9001 72.0999 55.4001 70.4999C56.9001 68.7999 58.6001 67.2999 60.3001 65.8999C61.9001 64.6999 63.8001 63.3999 65.8001 62.3999Z" fill="#999999"/>
<path d="M93.8999 78.7998C90.8999 81.1998 88.3999 83.9998 86.1999 87.0998C84.0999 90.1998 82.1999 93.4998 80.8999 96.9998C80.4999 97.8998 80.2999 98.7998 79.8999 99.5998L79.3999 100.9C79.2999 101.4 79.1999 101.8 78.9999 102.3L78.2999 105C78.1999 105.9 77.9999 106.9 77.7999 107.8L77.5999 109.2C77.4999 109.7 77.4999 110.1 77.4999 110.6L77.1999 113.4C77.0999 115.3 77.0999 117.2 76.9999 119.1C76.8999 118.2 76.8999 117.2 76.7999 116.3C76.7999 115.4 76.5999 114.4 76.6999 113.4L76.7999 110.5C76.7999 110 76.7999 109.5 76.8999 109.1L77.0999 107.7C77.1999 106.8 77.2999 105.8 77.4999 104.9L78.1999 102.1C78.2999 101.6 78.3999 101.2 78.4999 100.7L78.8999 99.2998C79.1999 98.3998 79.4999 97.4998 79.7999 96.5998L80.9999 93.9998C81.3999 93.0998 81.8999 92.2998 82.2999 91.4998C82.6999 90.5998 83.2999 89.8998 83.7999 88.9998C84.2999 88.1998 84.8999 87.3998 85.4999 86.6998C86.6999 85.1998 87.9999 83.7998 89.2999 82.3998C90.7999 81.0998 92.2999 79.7998 93.8999 78.7998Z" fill="#999999"/>
<path d="M158.1 98.6999C150.8 96.1999 143.5 93.5999 136.1 91.0999L114.2 83.3999H114.7C113 84.2999 111.3 85.5999 109.8 86.8999C108.3 88.1999 106.9 89.6999 105.6 91.2999C103.1 94.4999 101.1 97.9999 99.6001 101.8C98.9001 103.7 98.3001 105.6 97.8001 107.6C97.3001 109.6 96.9001 111.6 96.7001 113.6C96.1001 117.6 96.1001 121.7 96.2001 125.8L95.7001 125.1C101.4 127.7 107.1 130.4 112.8 133C118.5 135.7 124.2 138.3 129.9 141.1C124.1 138.8 118.3 136.3 112.4 133.9C106.6 131.5 100.8 129 95.0001 126.5L94.6001 126.3V125.8C94.2001 121.6 94.2001 117.4 94.7001 113.2C95.2001 109 96.1001 104.9 97.7001 100.9C99.3001 96.9999 101.4 93.1999 104.1 89.9999C106.8 86.7999 110 83.8999 113.9 81.9999L114.2 81.8999L114.5 81.9999L136.2 90.2999C143.6 93.0999 150.9 95.7999 158.1 98.6999Z" fill="#3A3A3A"/>
<path d="M114.3 80.6997C110.7 83.0997 107.5 86.0997 104.8 89.3997C102.1 92.7997 99.8999 96.3997 98.1999 100.4C97.7999 101.4 97.3999 102.4 97.0999 103.4C96.8999 103.9 96.6999 104.4 96.5999 104.9L96.1999 106.5C95.8999 107.5 95.5999 108.6 95.3999 109.6C95.1999 110.7 94.9999 111.7 94.7999 112.8C94.6999 113.3 94.5999 113.9 94.4999 114.4L94.3999 116L94.0999 119.2C93.9999 121.4 93.9999 123.5 93.9999 125.7C93.8999 124.6 93.7999 123.5 93.7999 122.4C93.7999 121.3 93.5999 120.2 93.6999 119.1L93.7999 115.8L93.8999 114.2C93.9999 113.7 93.9999 113.1 94.0999 112.6C94.1999 111.5 94.3999 110.4 94.5999 109.4C94.7999 108.3 95.0999 107.3 95.3999 106.2L95.7999 104.6C95.9999 104.1 96.1999 103.6 96.2999 103C96.6999 102 96.9999 100.9 97.3999 99.8997C99.1999 95.8997 101.5 92.0997 104.3 88.7997C105.7 87.0997 107.3 85.5997 108.9 84.1997C110.6 82.8997 112.3 81.5997 114.3 80.6997Z" fill="#999999"/>
<path d="M160.7 100.6C157.7 103 155.2 105.8 153 108.9C150.9 112 149 115.3 147.7 118.8C147.3 119.7 147.1 120.6 146.7 121.4L146.2 122.7C146.1 123.2 146 123.6 145.8 124.1L145.1 126.8C145 127.7 144.8 128.7 144.6 129.6L144.4 131C144.3 131.5 144.3 131.9 144.3 132.4L144 135.2C143.9 137.1 143.9 139 143.8 140.9C143.7 140 143.7 139 143.6 138.1C143.6 137.2 143.4 136.2 143.5 135.2L143.6 132.3C143.6 131.8 143.6 131.3 143.7 130.9L143.9 129.5C144 128.6 144.1 127.6 144.3 126.7L145 123.9C145.1 123.4 145.2 123 145.3 122.5L145.7 121.1C146 120.2 146.3 119.3 146.6 118.4L147.8 115.8C148.2 114.9 148.7 114.1 149.1 113.3C149.5 112.4 150.1 111.7 150.6 110.8C151.1 110 151.7 109.2 152.3 108.5C153.5 107 154.8 105.6 156.1 104.2C157.6 102.9 159 101.6 160.7 100.6Z" fill="#999999"/>
<path d="M141.8 136C141.8 136 129.7 176.9 146.5 199C146.5 199 138.8 156.9 147 138.8L141.8 136Z" fill="#8E8E8E"/>
<path d="M194.1 156.7L204.1 151.3C204.1 151.3 204.8 209.7 212.6 217.5L200.2 226.4C200.2 226.4 178.7 191 194.1 156.7Z" fill="#2B2B2B"/>
<path d="M204.5 150.5L194.1 156.7L146.2 138.6L157.1 130.8L204.5 150.5Z" fill="#8E8E8E"/>
<path d="M190.5 222L200.2 226.4C200.2 226.4 181.3 190.7 194.1 156.7L186.6 153.3C186.6 153.2 175 196.2 190.5 222Z" fill="#8E8E8E"/>
<path d="M151.5 136.7L190.6 152.3L196.5 149.3L157 133.6L151.5 136.7Z" fill="#2B2B2B"/>
<path d="M147 138.9L188.2 156.4C188.2 156.4 178.3 191.5 186.7 211.7L148.3 198.5C148.3 198.4 134.2 169.9 147 138.9Z" fill="#8E8E8E"/>
<path d="M146.9 138.8L167.5 146.8C174.5 149.5 181.5 152.4 188.6 155.2L189.6 155.6L189.3 156.7C188.2 161.2 187.3 165.7 186.6 170.3C185.9 174.9 185.3 179.5 185 184.1C184.7 188.7 184.7 193.3 185.2 197.9C185.6 202.4 186.6 206.9 188.3 211L189.9 214.7L186.1 213.4L147.7 199.9L147.1 199.7L146.8 199.1C145.6 196.6 144.8 194.2 144.1 191.7C143.3 189.2 142.7 186.7 142.2 184.2C141.2 179.1 140.6 174 140.5 168.8C140.4 163.6 141 158.5 142 153.4C142.5 150.9 143.2 148.4 144 146C144.4 144.8 144.8 143.6 145.3 142.4C145.8 141.1 146.5 139.9 146.9 138.8ZM147 138.9C146.1 141.2 145.2 143.6 144.6 146.1C143.9 148.5 143.3 151 142.9 153.5C142.5 156 142.2 158.5 142 161.1C141.8 163.6 141.8 166.2 141.9 168.7C142.1 173.8 142.7 178.9 143.8 183.8C144.9 188.8 146.4 193.7 148.5 198.3L148.4 198.2L186.9 211.4L186.7 211.7C184.9 207.3 184 202.7 183.6 198C183.2 193.3 183.2 188.6 183.5 184C183.8 179.3 184.4 174.7 185.2 170.1C186 165.5 187 160.9 188.2 156.4L188.3 156.6L147 138.9Z" fill="#2B2B2B"/>
<path d="M138.7 210L179.8 229.9C179.8 229.9 192.7 221.9 188.2 215.3L146.2 200L138.7 210Z" fill="#8E8E8E"/>
<path d="M138.8 209.9L149.7 214.6C153.3 216.1 156.8 217.6 160.2 219.2L170.5 223.7L180.6 228.3L179 228.4C180.2 227.6 181.4 226.7 182.5 225.7C183.6 224.7 184.6 223.7 185.5 222.6C186.4 221.5 187 220.3 187.3 219.2C187.6 218.1 187.4 217.1 186.8 216.2L187.7 216.9L177.2 213L166.8 209L156.4 204.8C152.9 203.4 149.5 202.1 146 200.6L146.9 200.3L143 205C141.6 206.6 140.2 208.2 138.8 209.9ZM138.6 210L146.1 199.8L146.2 199.7H146.3L188.4 215H188.5V215.1C189.4 216.4 189.7 218.2 189.3 219.7C188.9 221.3 188.1 222.6 187.1 223.9C186.1 225.1 185 226.2 183.8 227.2C182.6 228.2 181.4 229.2 180 230L179.9 230.1H179.8L138.6 210Z" fill="#2B2B2B"/>
<path d="M142.8 209.1L147.1 203.4L184.5 218.7L180 226L142.8 209.1Z" fill="#2B2B2B"/>
<path d="M180.2 228.3L187 219L188.3 214.4L193 219.4L181.7 232.7L180.2 228.3Z" fill="#2B2B2B"/>
<path d="M180.4 230.8L181.7 232.7L140.4 213.6L139.2 210.3L180.4 230.8Z" fill="#8E8E8E"/>
<path d="M157.1 130.8L153.9 129.3L141.8 136L146.3 137.8L157.1 130.8Z" fill="#8E8E8E"/>
<path d="M141.8 136C141.8 136 129.7 176.9 146.5 199C146.5 199 138.8 156.9 147 138.8L141.8 136Z" fill="#8E8E8E"/>
<path d="M194.1 156.7L204.1 151.3C204.1 151.3 204.8 209.7 212.6 217.5L200.2 226.4C200.2 226.4 178.7 191 194.1 156.7Z" fill="#2B2B2B"/>
<path d="M204.5 150.5L194.1 156.7L146.2 138.6L157.1 130.8L204.5 150.5Z" fill="#8E8E8E"/>
<path d="M190.5 222L200.2 226.4C200.2 226.4 181.3 190.7 194.1 156.7L186.6 153.3C186.6 153.2 175 196.2 190.5 222Z" fill="#8E8E8E"/>
<path d="M151.5 136.7L190.6 152.3L196.5 149.3L157 133.6L151.5 136.7Z" fill="#2B2B2B"/>
<path d="M147 138.9L188.2 156.4C188.2 156.4 178.3 191.5 186.7 211.7L148.3 198.5C148.3 198.4 134.2 169.9 147 138.9Z" fill="#8E8E8E"/>
<path d="M146.9 138.8L167.5 146.8C174.5 149.5 181.5 152.4 188.6 155.2L189.6 155.6L189.3 156.7C188.2 161.2 187.3 165.7 186.6 170.3C185.9 174.9 185.3 179.5 185 184.1C184.7 188.7 184.7 193.3 185.2 197.9C185.6 202.4 186.6 206.9 188.3 211L189.9 214.7L186.1 213.4L147.7 199.9L147.1 199.7L146.8 199.1C145.6 196.6 144.8 194.2 144.1 191.7C143.3 189.2 142.7 186.7 142.2 184.2C141.2 179.1 140.6 174 140.5 168.8C140.4 163.6 141 158.5 142 153.4C142.5 150.9 143.2 148.4 144 146C144.4 144.8 144.8 143.6 145.3 142.4C145.8 141.1 146.5 139.9 146.9 138.8ZM147 138.9C146.1 141.2 145.2 143.6 144.6 146.1C143.9 148.5 143.3 151 142.9 153.5C142.5 156 142.2 158.5 142 161.1C141.8 163.6 141.8 166.2 141.9 168.7C142.1 173.8 142.7 178.9 143.8 183.8C144.9 188.8 146.4 193.7 148.5 198.3L148.4 198.2L186.9 211.4L186.7 211.7C184.9 207.3 184 202.7 183.6 198C183.2 193.3 183.2 188.6 183.5 184C183.8 179.3 184.4 174.7 185.2 170.1C186 165.5 187 160.9 188.2 156.4L188.3 156.6L147 138.9Z" fill="#2B2B2B"/>
<path d="M138.7 210L179.8 229.9C179.8 229.9 192.7 221.9 188.2 215.3L146.2 200L138.7 210Z" fill="#8E8E8E"/>
<path d="M138.8 209.9L149.7 214.6C153.3 216.1 156.8 217.6 160.2 219.2L170.5 223.7L180.6 228.3L179 228.4C180.2 227.6 181.4 226.7 182.5 225.7C183.6 224.7 184.6 223.7 185.5 222.6C186.4 221.5 187 220.3 187.3 219.2C187.6 218.1 187.4 217.1 186.8 216.2L187.7 216.9L177.2 213L166.8 209L156.4 204.8C152.9 203.4 149.5 202.1 146 200.6L146.9 200.3L143 205C141.6 206.6 140.2 208.2 138.8 209.9ZM138.6 210L146.1 199.8L146.2 199.7H146.3L188.4 215H188.5V215.1C189.4 216.4 189.7 218.2 189.3 219.7C188.9 221.3 188.1 222.6 187.1 223.9C186.1 225.1 185 226.2 183.8 227.2C182.6 228.2 181.4 229.2 180 230L179.9 230.1H179.8L138.6 210Z" fill="#2B2B2B"/>
<path d="M140.9 209.1L145.5 203.4L184.5 218.7L179.8 226L140.9 209.1Z" fill="#2B2B2B"/>
<path d="M180.2 228.3L187 219L188.3 214.4L193 219.4L181.7 232.7L180.2 228.3Z" fill="#2B2B2B"/>
<path d="M180.4 230.8L181.7 232.7L140.4 213.6L139.2 210.3L180.4 230.8Z" fill="#8E8E8E"/>
<path d="M157.1 130.8L153.9 129.3L141.8 136L146.3 137.8L157.1 130.8Z" fill="#8E8E8E"/>
<path d="M31.0999 93.0996C31.0999 93.0996 20.2999 129.8 35.2999 149.7C35.2999 149.7 28.3999 111.9 35.6999 95.6996L31.0999 93.0996Z" fill="#8E8E8E"/>
<path d="M78.0998 111.7L87.0998 106.8C87.0998 106.8 87.6998 159.3 94.6998 166.3L83.5998 174.3C83.4998 174.3 64.1998 142.5 78.0998 111.7Z" fill="#2B2B2B"/>
<path d="M87.4 106.2L78.1 111.7L35 95.4995L44.8 88.4995L87.4 106.2Z" fill="#8E8E8E"/>
<path d="M74.7999 170.4L83.4999 174.3C83.4999 174.3 66.4999 142.3 77.9999 111.7L71.1999 108.6C71.2999 108.6 60.8999 147.3 74.7999 170.4Z" fill="#8E8E8E"/>
<path d="M39.8 93.7995L74.9001 107.8L80.2 105.1L44.7001 90.9995L39.8 93.7995Z" fill="#2B2B2B"/>
<path d="M35.6999 95.6997L72.6999 111.4C72.6999 111.4 63.7999 142.9 71.3999 161L36.8999 149.1C36.8999 149.2 24.1999 123.6 35.6999 95.6997Z" fill="#8E8E8E"/>
<path d="M35.6999 95.5996L54.1999 102.7C60.4999 105.1 66.7999 107.7 73.1999 110.2L74.1999 110.6L73.8999 111.7C72.8999 115.7 72.0999 119.8 71.4999 123.9C70.8999 128 70.2999 132.1 70.0999 136.3C69.8999 140.4 69.7999 144.6 70.2999 148.6C70.6999 152.7 71.4999 156.7 72.9999 160.3L74.5999 164L70.7999 162.7L36.3999 150.6L35.7999 150.4L35.4999 149.8C34.4999 147.6 33.6999 145.4 32.9999 143.2C32.2999 141 31.7999 138.7 31.2999 136.4C30.3999 131.8 29.8999 127.2 29.7999 122.6C29.6999 118 30.2999 113.3 31.1999 108.8C31.6999 106.5 32.2999 104.3 32.9999 102.1C33.2999 101 33.7999 99.8996 34.1999 98.8996C34.6999 97.7996 35.2999 96.5996 35.6999 95.5996ZM35.7999 95.7996C34.9999 97.8996 34.1999 99.9996 33.5999 102.2C32.8999 104.4 32.4999 106.6 31.9999 108.9C31.1999 113.4 30.8999 118 30.9999 122.5C31.1999 127.1 31.6999 131.6 32.6999 136.1C33.6999 140.5 35.0999 144.9 36.9999 149.1V149L71.4999 160.9L71.2999 161.2C69.6999 157.3 68.8999 153.1 68.4999 148.9C68.0999 144.7 68.1999 140.5 68.3999 136.3C68.6999 132.1 69.1999 127.9 69.8999 123.8C70.5999 119.7 71.4999 115.5 72.5999 111.5L72.6999 111.7L35.7999 95.7996Z" fill="#2B2B2B"/>
<path d="M28.3 159.6L65.2 177.5C65.2 177.5 76.8 170.3 72.7 164.4L35 150.5L28.3 159.6Z" fill="#8E8E8E"/>
<path d="M28.4 159.499L38.2 163.699C41.5 164.999 44.6 166.399 47.7 167.799L57 171.799L66 175.899L64.4 175.999C65.4 175.299 66.5 174.499 67.5 173.599C68.5 172.699 69.3999 171.799 70.1999 170.799C70.9999 169.799 71.6 168.799 71.8 167.799C72 166.799 71.9 165.999 71.4 165.199L72.3 165.899L62.9 162.399L53.5 158.799L44.2 154.999C41.1 153.699 38 152.499 34.9 151.199L35.7999 150.899L32.2999 154.999C30.9999 156.599 29.6999 157.999 28.4 159.499ZM28.2 159.599L34.9 150.499L35 150.399H35.0999L72.9 164.099H73V164.199C73.8 165.399 74.0999 166.999 73.6999 168.299C73.2999 169.699 72.5999 170.899 71.6999 171.999C70.7999 173.099 69.7999 174.099 68.6999 174.999C67.5999 175.899 66.5 176.799 65.3 177.499L65.1999 177.599H65.0999L28.2 159.599Z" fill="#2B2B2B"/>
<path d="M31.8999 158.799L35.8999 153.699L69.3999 167.399L65.3999 173.899L31.8999 158.799Z" fill="#2B2B2B"/>
<path d="M65.5999 176.1L71.5999 167.7L72.7999 163.6L77.0999 168.1L66.8999 180L65.5999 176.1Z" fill="#2B2B2B"/>
<path d="M65.8 178.299L66.9 179.999L29.9 162.799L28.7 159.899L65.8 178.299Z" fill="#8E8E8E"/>
<path d="M44.7999 88.4996L41.9999 87.0996L31.0999 93.0996L35.1999 94.7996L44.7999 88.4996Z" fill="#8E8E8E"/>
<path d="M31.0999 93.0996C31.0999 93.0996 20.2999 129.8 35.2999 149.7C35.2999 149.7 28.3999 111.9 35.6999 95.6996L31.0999 93.0996Z" fill="#8E8E8E"/>
<path d="M78.0998 111.7L87.0998 106.8C87.0998 106.8 87.6998 159.3 94.6998 166.3L83.5998 174.3C83.4998 174.3 64.1998 142.5 78.0998 111.7Z" fill="#2B2B2B"/>
<path d="M87.4 106.2L78.1 111.7L35 95.4995L44.8 88.4995L87.4 106.2Z" fill="#8E8E8E"/>
<path d="M74.7999 170.4L83.4999 174.3C83.4999 174.3 66.4999 142.3 77.9999 111.7L71.1999 108.6C71.2999 108.6 60.8999 147.3 74.7999 170.4Z" fill="#8E8E8E"/>
<path d="M39.8 93.7995L74.9001 107.8L80.2 105.1L44.7001 90.9995L39.8 93.7995Z" fill="#2B2B2B"/>
<path d="M35.6999 95.6997L72.6999 111.4C72.6999 111.4 63.7999 142.9 71.3999 161L36.8999 149.1C36.8999 149.2 24.1999 123.6 35.6999 95.6997Z" fill="#8E8E8E"/>
<path d="M35.6999 95.5996L54.1999 102.7C60.4999 105.1 66.7999 107.7 73.1999 110.2L74.1999 110.6L73.8999 111.7C72.8999 115.7 72.0999 119.8 71.4999 123.9C70.8999 128 70.2999 132.1 70.0999 136.3C69.8999 140.4 69.7999 144.6 70.2999 148.6C70.6999 152.7 71.4999 156.7 72.9999 160.3L74.5999 164L70.7999 162.7L36.3999 150.6L35.7999 150.4L35.4999 149.8C34.4999 147.6 33.6999 145.4 32.9999 143.2C32.2999 141 31.7999 138.7 31.2999 136.4C30.3999 131.8 29.8999 127.2 29.7999 122.6C29.6999 118 30.2999 113.3 31.1999 108.8C31.6999 106.5 32.2999 104.3 32.9999 102.1C33.2999 101 33.7999 99.8996 34.1999 98.8996C34.6999 97.7996 35.2999 96.5996 35.6999 95.5996ZM35.7999 95.7996C34.9999 97.8996 34.1999 99.9996 33.5999 102.2C32.8999 104.4 32.4999 106.6 31.9999 108.9C31.1999 113.4 30.8999 118 30.9999 122.5C31.1999 127.1 31.6999 131.6 32.6999 136.1C33.6999 140.5 35.0999 144.9 36.9999 149.1V149L71.4999 160.9L71.2999 161.2C69.6999 157.3 68.8999 153.1 68.4999 148.9C68.0999 144.7 68.1999 140.5 68.3999 136.3C68.6999 132.1 69.1999 127.9 69.8999 123.8C70.5999 119.7 71.4999 115.5 72.5999 111.5L72.6999 111.7L35.7999 95.7996Z" fill="#2B2B2B"/>
<path d="M28.3 159.6L65.2 177.5C65.2 177.5 76.8 170.3 72.7 164.4L35 150.5L28.3 159.6Z" fill="#8E8E8E"/>
<path d="M28.4 159.499L38.2 163.699C41.5 164.999 44.6 166.399 47.7 167.799L57 171.799L66 175.899L64.4 175.999C65.4 175.299 66.5 174.499 67.5 173.599C68.5 172.699 69.3999 171.799 70.1999 170.799C70.9999 169.799 71.6 168.799 71.8 167.799C72 166.799 71.9 165.999 71.4 165.199L72.3 165.899L62.9 162.399L53.5 158.799L44.2 154.999C41.1 153.699 38 152.499 34.9 151.199L35.7999 150.899L32.2999 154.999C30.9999 156.599 29.6999 157.999 28.4 159.499ZM28.2 159.599L34.9 150.499L35 150.399H35.0999L72.9 164.099H73V164.199C73.8 165.399 74.0999 166.999 73.6999 168.299C73.2999 169.699 72.5999 170.899 71.6999 171.999C70.7999 173.099 69.7999 174.099 68.6999 174.999C67.5999 175.899 66.5 176.799 65.3 177.499L65.1999 177.599H65.0999L28.2 159.599Z" fill="#2B2B2B"/>
<path d="M30.3 158.799L34.4001 153.699L69.4001 167.399L65.2 173.899L30.3 158.799Z" fill="#2B2B2B"/>
<path d="M65.5999 176.1L71.5999 167.7L72.7999 163.6L77.0999 168.1L66.8999 180L65.5999 176.1Z" fill="#2B2B2B"/>
<path d="M65.8 178.299L66.9 179.999L29.9 162.799L28.7 159.899L65.8 178.299Z" fill="#8E8E8E"/>
<path d="M44.7999 88.4996L41.9999 87.0996L31.0999 93.0996L35.1999 94.7996L44.7999 88.4996Z" fill="#8E8E8E"/>
<path d="M216.2 54.7996C217.9 54.1996 229.5 45.8996 231.2 46.3996C232.9 46.9996 250.2 53.2996 250.2 53.2996L235 63.9996L255.8 73.1996L241.3 85.9996L219.7 76.9996L207 85.6996L185.1 75.8996L199.5 65.4996L182.2 56.7996L198.3 47.5996L216.2 54.7996Z" fill="#A00000"/>
<path d="M64.7 51.5L91.4 60.6C100.3 63.6 109.2 66.7 118.1 69.8C135.9 76 153.7 82.1 171.4 88.3L224.6 107L277.8 125.9H277.1C292.2 118.2 307.3 110.6 322.4 102.9L345.1 91.5L367.8 80.2L345.4 92.1L323 104C308 111.8 293 119.7 278 127.5L277.7 127.7L277.3 127.6L224 108.8L170.8 90C153.1 83.7 135.4 77.3 117.7 70.9C108.8 67.7 100 64.5 91.2 61.3L64.7 51.5Z" fill="#3A3A3A"/>
<path d="M353.9 218.3C353 219.5 343.2 226.3 343.2 227.8C343.2 229.3 343.4 244.7 343.4 244.7L355.9 235.7L357.4 254.6L371.5 246.7L370.4 227.2L380.7 219.6L379 199.6L366.8 208.1L364.8 192.1L353.1 202.3L353.9 218.3Z" fill="#A00000"/>
<path d="M286.7 335.3C285.8 335.4 284.9 335.5 284 335.6C284 335.6 282.6 335.9 279.9 335.7C280.2 335.7 280.5 335.6 280.9 335.6L286.7 335.3Z" fill="#818282"/>
<path d="M279.8 335.7C271.3 336.8 264 333.1 256.8 328.9C255.9 328.4 255 327.9 254.2 327.3C266.4 334 275.1 335.5 279.8 335.7Z" fill="#818282"/>
</g>
<defs>
<clipPath id="clip0">
<rect width="454.7" height="335.9" fill="white"/>
</clipPath>
</defs>
</svg>
